<svg xmlns="http://www.w3.org/2000/svg" fill="none" viewBox="0 0 138 44" height="44" width="138">
<path fill="#1A1E38" d="M5.9798 31.0488H1V36.0642H5.9798V31.0488Z"></path>
<path fill="#4AE3B5" d="M21.5009 2H20.6328V6.66447H21.5009C27.2201 6.66447 32.2476 9.85521 34.8138 14.5056H40.0464C37.1606 7.21653 29.9103 2 21.5009 2Z" clip-rule="evenodd" fill-rule="evenodd"></path>
<path fill="#4AE3B5" d="M41.2435 19.1701H31.5939C30.5016 14.7115 26.3566 11.3289 21.5055 11.3289H11.1357V22.6275H15.8913V15.9934H21.5055C24.5488 15.9934 27.1197 18.5198 27.1197 21.5C27.1197 24.4802 24.5488 27.0066 21.5055 27.0066H15.8913H11.1357V36.3355H6.6377V41H15.8913V31.6711H21.5055C26.3566 31.6711 30.5016 28.2885 31.5939 23.8299H36.4402C35.2858 30.8757 28.9848 36.3355 21.5008 36.3355H20.6422V41H21.5008C32.4191 41 41.3818 32.2044 41.3818 21.4953C41.3818 20.7047 41.3341 19.928 41.2387 19.1608L41.2435 19.1701Z" clip-rule="evenodd" fill-rule="evenodd"></path>
<path fill="#4AE3B5" d="M137 32.9904H131.915V38.0432H137V32.9904Z"></path>
<path fill="#1A1E38" d="M71.3703 17.8508C70.1158 16.9572 69.1856 15.708 68.5512 14.0799H65.9707V19.1841H63.3711V4.73691H70.5832C72.0428 4.73691 73.3068 5.15329 74.3658 5.99543C75.4151 6.93113 75.9303 8.068 75.9303 9.41073C75.9303 10.7535 75.4104 11.881 74.3658 12.8167C73.5263 13.5091 72.5198 13.9161 71.3273 14.0471C71.7709 14.9641 72.3529 15.6238 73.0683 16.0308C73.7743 16.4285 74.6233 16.6297 75.6298 16.6297V19.1794C74.0319 19.1794 72.6152 18.7303 71.3703 17.8461V17.8508ZM72.6677 10.8845C73.1113 10.5102 73.3307 10.0189 73.3307 9.41073C73.3307 8.80253 73.1113 8.30193 72.6677 7.92765C72.1573 7.5019 71.4752 7.28669 70.5832 7.28669H65.9707V11.5348H70.5832C71.4752 11.5348 72.1573 11.3102 72.6677 10.8845Z"></path>
<path fill="#1A1E38" d="M88.7094 19.1795L87.1353 15.7829H81.2921L79.7038 19.1795H76.8418L83.5578 4.73224H84.8553L91.5713 19.1795H88.7094ZM84.2113 9.49495L82.4703 13.2378H85.9428L84.2113 9.49495Z"></path>
<path fill="#1A1E38" d="M114.023 19.1795L112.449 15.7829H106.606L105.017 19.1795H102.155L108.871 4.73224H110.169L116.885 19.1795H114.023ZM109.525 9.49495L107.784 13.2378H111.256L109.525 9.49495Z"></path>
<path fill="#1A1E38" d="M98.1725 9.00372H95.5586V19.1795H98.1725V9.00372Z"></path>
<path fill="#1A1E38" d="M90.1494 4.77902V7.34752L90.3116 7.32881H95.382L95.4154 7.33348H98.1677V7.32881H103.329L103.582 7.31009V4.77902H90.1494Z"></path>
<path fill="#1A1E38" d="M60.7812 7.1978C60.3042 6.44456 59.6603 5.84571 58.8542 5.39658C58.0481 4.96148 57.1418 4.73691 56.1496 4.73691H48.9375V10.4774H51.5371V7.28669H56.1496C57.0702 7.28669 57.7571 7.5019 58.2102 7.92765C58.6681 8.35339 58.8923 8.95224 58.8923 9.72887C58.8923 10.5055 58.6634 11.0903 58.2102 11.5301C57.7523 11.9558 57.0702 12.171 56.1496 12.171H51.5371V12.1523H48.9375V19.1841H51.5371V14.7208H56.1496C57.1465 14.7208 58.0481 14.4963 58.8542 14.0612C59.6603 13.612 60.3042 13.0132 60.7812 12.2599C61.2582 11.5067 61.4967 10.6646 61.4967 9.72887C61.4967 8.79317 61.2582 7.95104 60.7812 7.1978Z"></path>
<path fill="#1A1E38" d="M63.8916 38.0572V23.61H66.4912V38.0572H63.8916Z"></path>
<path fill="#1A1E38" d="M73.4266 37.7484C72.4202 37.4022 71.552 36.8923 70.8127 36.2326C70.0781 35.5636 69.5153 34.7589 69.1337 33.8325C68.7521 32.8968 68.5518 31.9003 68.5518 30.8242C68.5518 29.7482 68.7473 28.7517 69.1337 27.8253C69.5201 26.899 70.0781 26.099 70.8127 25.4253C71.5473 24.7562 72.4202 24.2463 73.4266 23.9094C74.4235 23.5632 75.5206 23.3901 76.7131 23.3901C77.6671 23.3901 78.6211 23.5305 79.5846 23.8158C80.5386 24.1012 81.4496 24.5363 82.3225 25.1258L80.8295 27.2218C79.575 26.3656 78.1965 25.9399 76.7131 25.9399C74.9291 25.9399 73.5506 26.389 72.5776 27.292C71.6331 28.1481 71.1561 29.3131 71.1561 30.8196C71.1561 32.326 71.6331 33.505 72.5776 34.3565C73.5506 35.2595 74.9291 35.7086 76.7131 35.7086C77.7482 35.7086 78.7546 35.4934 79.7181 35.0583V32.457H74.5142V29.9073H82.3177L82.3082 36.5367C81.6023 37.0233 80.7866 37.4303 79.8326 37.7671C78.8786 38.104 77.8436 38.2631 76.7131 38.2631C75.5206 38.2631 74.4235 38.09 73.4266 37.7438V37.7484Z"></path>
<path fill="#1A1E38" d="M84.7412 38.0572V23.61H87.3408V38.0572H84.7412Z"></path>
<path fill="#1A1E38" d="M113.303 38.0572L111.729 34.6606H105.886L104.298 38.0572H101.436L108.152 23.61H109.449L116.165 38.0572H113.303ZM108.805 28.368L107.064 32.1108H110.537L108.805 28.368Z"></path>
<path fill="#1A1E38" d="M117.653 38.0572V23.61H120.253V35.5027H128.7V38.0525H117.653V38.0572Z"></path>
<path fill="#1A1E38" d="M97.4479 27.8768H94.834V38.0525H97.4479V27.8768Z"></path>
<path fill="#1A1E38" d="M89.4248 23.6521V26.2206L89.5917 26.2019H94.6574L94.6956 26.2066H97.4478V26.2019H102.609L102.857 26.1832V23.6521H89.4248Z"></path>
<path fill="#1A1E38" d="M61.2061 27.7692C60.7721 26.8522 60.1901 26.0802 59.4365 25.4627C58.6924 24.8311 57.8386 24.3726 56.8989 24.0685C55.9449 23.7644 54.9623 23.61 53.9225 23.61H48.418V26.1878H51.0176V26.1644H53.9177C55.4727 26.1644 56.7462 26.5715 57.7432 27.3949C58.7496 28.209 59.2457 29.3552 59.2457 30.8289C59.2457 32.3026 58.7496 33.4536 57.7432 34.277C56.7462 35.1004 55.4727 35.5074 53.9177 35.5074H51.0176V27.8627H48.418V38.0572H53.9225C54.9575 38.0572 55.9449 37.9028 56.8989 37.5987C57.8433 37.2946 58.6924 36.8268 59.4365 36.2045C60.1949 35.5823 60.7721 34.8103 61.2061 33.8887C61.6306 32.9717 61.8501 31.9564 61.8501 30.8289C61.8501 29.7014 61.6306 28.6955 61.2061 27.7692Z"></path>
</svg>
